<svg xmlns="http://www.w3.org/2000/svg" xml:space="preserve" id="sol-nft_svg__Layer_1" x="0" y="0" viewBox="0 0 512 512"><style>.sol-nft_svg__st0{fill:#c9fe72}</style><path d="M472.2 122.5 263.5 2c-4.6-2.7-10.4-2.7-15 0L39.8 122.5c-4.6 2.7-7.5 7.6-7.5 13v241c0 5.4 2.9 10.3 7.5 13L248.5 510c4.6 2.7 10.4 2.7 15 0l208.7-120.5c4.6-2.7 7.5-7.6 7.5-13v-241c0-5.4-2.8-10.3-7.5-13m-39.7 255.3-159.3 92c-10.6 6.1-23.7 6.1-34.4 0l-159.3-92c-10.6-6.1-17.2-17.5-17.2-29.8V164c0-12.3 6.5-23.6 17.2-29.8l159.3-92c10.6-6.1 23.7-6.1 34.4 0l159.3 92c10.6 6.1 17.2 17.5 17.2 29.8v184c0 12.3-6.5 23.6-17.2 29.8" class="sol-nft_svg__st0"></path><path d="M184.8 192.8c-8.3 0-15 6.7-15 15v60L142.4 202c-2.3-5.6-7.8-9.2-13.8-9.2h-16.1c-8.3 0-15 6.7-15 15v96.4c.7 19.9 29.3 19.9 30 0v-60l27.4 65.7c2.3 5.6 7.8 9.2 13.8 9.2h16.1c8.3 0 15-6.7 15-15v-96.4c0-8.2-6.7-14.9-15-14.9M226 207.8v96.4c.7 19.9 29.3 19.9 30 0V279h32.1c19.9-.7 19.9-29.3 0-30H256v-26.2h48.2c19.9-.7 19.9-29.3 0-30H241c-8.3 0-15 6.7-15 15M344.4 222.8h17.1v81.4c.7 19.9 29.3 19.9 30 0v-81.4h17.1c19.9-.7 19.9-29.3 0-30h-64.3c-19.8.7-19.8 29.3.1 30" class="sol-nft_svg__st0"></path></svg>