<svg xmlns="http://www.w3.org/2000/svg" xml:space="preserve" viewBox="0 0 512 512"><path d="M103.6 240h8.4c8.5 0 16.6 3.4 22.6 9.4s9.4 14.1 9.4 22.6v106c0 8.5-3.4 16.6-9.4 22.6S120.5 410 112 410H80c-26.5 0-48-21.5-48-48v-74c0-23.7 17.1-43.3 39.7-47.3.1-28.8 5.4-88.8 43.6-138.5C155.9 49.5 209.1 32 256 32s99.7 17 140.7 70.2c38.5 50.1 43.9 109.9 44 138.5 22.4 4.1 39.3 23.7 39.3 47.2v74c0 26.5-21.5 48-48 48v20.9c0 27.1-22 49.1-49.1 49.1H256c-8.8 0-16-7.2-16-16s7.2-16 16-16h126.9c9.4 0 17.1-7.7 17.1-17.1V410c-8.5 0-16.6-3.4-22.6-9.4S368 386.4 368 378V272c0-8.5 3.4-16.6 9.4-22.6s14.1-9.4 22.6-9.4h8.8c0-24.4-4.6-75.5-37.5-118.2C337.7 78.1 294.4 64 256 64s-82 14.5-115.3 57.8c-32.7 42.4-37.1 93.8-37.1 118.2M400 272v106h32c8.8 0 16-7.2 16-16v-74c0-8.8-7.2-16-16-16zM112 378V272H80c-8.8 0-16 7.2-16 16v74c0 8.8 7.2 16 16 16zm80-42v-42.2c-21.6-18.2-35.2-45.4-35.2-75.8 0-54.8 44.5-99.2 99.2-99.2s99.2 44.5 99.2 99.2c0 43.4-28 80.4-66.8 93.8-5.2 1.8-72.8 38.3-72.8 38.3-5 2.7-10.9 2.5-15.8-.4-4.8-2.9-7.8-8.1-7.8-13.7m32-26.6c21.5-11.4 50.5-26.7 53.9-27.8 26.4-9.1 45.3-34.2 45.3-63.6 0-37.1-30.1-67.2-67.2-67.2s-67.2 30.1-67.2 67.2c0 22.7 11.3 42.8 28.5 54.9 4.2 3 6.8 7.9 6.8 13.1z" style="fill-rule: evenodd; clip-rule: evenodd; fill: rgb(201, 254, 114);"></path></svg>