<?xml version="1.0" encoding="utf-8"?>
<!-- Generator: Adobe Illustrator 27.4.1, SVG Export Plug-In . SVG Version: 6.00 Build 0)  -->
<svg version="1.1" id="_x31_" xmlns="http://www.w3.org/2000/svg" xmlns:xlink="http://www.w3.org/1999/xlink" x="0px" y="0px"
	 viewBox="0 0 269 224" style="enable-background:new 0 0 269 224;" xml:space="preserve">
<style type="text/css">
	.st0{fill:#FFFFFF;}
</style>
<g id="_x31__00000125564998141599771660000005764476860844121485_">
	<path class="st0" d="M31.8,224c34.3,0,60.1-29.9,75.5-53.4c-1.9,5.2-2.9,10.4-2.9,15.4c0,13.8,7.9,23.6,23.5,23.6
		c21.4,0,44.3-18.8,56.2-39c-0.8,2.9-1.2,5.6-1.2,8.1c0,9.6,5.4,15.7,16.4,15.7C234,194.4,269,132.8,269,79
		c0-42-21.2-78.9-74.5-78.9C100.9,0,0,114.4,0,188.3C0,217.3,15.6,224,31.8,224z M162.3,74.3c0-10.4,5.8-17.7,14.4-17.7
		s14.1,7.3,14.1,17.7s-5.8,18-14.1,18S162.3,84.7,162.3,74.3z M206.8,74.3c0-10.4,5.8-17.7,14.4-17.7s14.1,7.3,14.1,17.7
		s-5.8,18-14.1,18S206.8,84.7,206.8,74.3z"/>
</g>
</svg>
